<svg width="47" height="43" viewBox="0 0 47 43" fill="none" xmlns="http://www.w3.org/2000/svg">
<path d="M19.3136 12.4218C19.4545 12.3693 19.6059 12.3421 19.759 12.3416C19.9121 12.3411 20.0638 12.3674 20.205 12.419C20.3463 12.4706 20.4743 12.5463 20.5814 12.6418C20.6886 12.7373 20.7727 12.8506 20.8288 12.9749C20.885 13.0993 20.912 13.2322 20.9083 13.3659C20.9045 13.4995 20.8702 13.6311 20.8072 13.7529C20.7442 13.8748 20.6539 13.9844 20.5416 14.0752C20.4292 14.166 20.2972 14.2363 20.1532 14.2818C19.3876 14.5452 18.7304 15.0037 18.2673 15.5976C17.8041 16.1915 17.5565 16.8933 17.5565 17.6118V19.3518C17.5565 19.617 17.6772 19.8714 17.892 20.0589C18.1068 20.2465 18.3982 20.3518 18.702 20.3518H27.8655C28.1693 20.3518 28.4607 20.2465 28.6755 20.0589C28.8903 19.8714 29.011 19.617 29.011 19.3518V17.7048C29.0111 16.9633 28.7531 16.2392 28.2711 15.6286C27.7892 15.018 27.1061 14.5497 26.3123 14.2858C26.1674 14.2419 26.0342 14.1731 25.9203 14.0834C25.8065 13.9937 25.7145 13.885 25.6497 13.7637C25.5849 13.6424 25.5487 13.5109 25.5431 13.3771C25.5376 13.2434 25.5629 13.11 25.6175 12.9849C25.6721 12.8598 25.7549 12.7456 25.861 12.649C25.9672 12.5524 26.0944 12.4753 26.2353 12.4224C26.3761 12.3695 26.5277 12.3419 26.681 12.3411C26.8344 12.3403 26.9863 12.3664 27.1279 12.4178C28.3553 12.826 29.4117 13.5501 30.1572 14.4943C30.9026 15.4385 31.3018 16.5581 31.3019 17.7048V19.3518C31.3019 20.1475 30.9398 20.9105 30.2954 21.4731C29.6509 22.0357 28.7769 22.3518 27.8655 22.3518H18.702C17.7906 22.3518 16.9165 22.0357 16.2721 21.4731C15.6277 20.9105 15.2656 20.1475 15.2656 19.3518V17.6118C15.2658 16.492 15.652 15.3981 16.3739 14.4724C17.0959 13.5468 18.1202 12.8323 19.3136 12.4218ZM23.2837 2.35181C24.4989 2.35181 25.6643 2.77323 26.5236 3.52338C27.3828 4.27352 27.8655 5.29094 27.8655 6.35181V8.35181C27.8655 9.41267 27.3828 10.4301 26.5236 11.1802C25.6643 11.9304 24.4989 12.3518 23.2837 12.3518C22.0686 12.3518 20.9032 11.9304 20.0439 11.1802C19.1847 10.4301 18.702 9.41267 18.702 8.35181V6.35181C18.702 5.29094 19.1847 4.27352 20.0439 3.52338C20.9032 2.77323 22.0686 2.35181 23.2837 2.35181ZM23.2837 4.35181C22.6762 4.35181 22.0935 4.56252 21.6638 4.93759C21.2342 5.31267 20.9929 5.82137 20.9929 6.35181V8.35181C20.9929 8.88224 21.2342 9.39095 21.6638 9.76602C22.0935 10.1411 22.6762 10.3518 23.2837 10.3518C23.8913 10.3518 24.474 10.1411 24.9036 9.76602C25.3333 9.39095 25.5746 8.88224 25.5746 8.35181V6.35181C25.5746 5.82137 25.3333 5.31267 24.9036 4.93759C24.474 4.56252 23.8913 4.35181 23.2837 4.35181Z" fill="#181725"/>
<path d="M8.1208 38.5203H6.6328L6.0448 36.8283H2.4688L1.8808 38.5203H0.380801L3.4288 30.1203H5.0848L8.1208 38.5203ZM4.2568 31.7403L2.9248 35.5323H5.5888L4.2568 31.7403ZM11.6197 38.6763C10.7157 38.6763 9.95974 38.3723 9.35174 37.7643C8.75174 37.1483 8.45174 36.4003 8.45174 35.5203C8.45174 34.6243 8.75174 33.8763 9.35174 33.2763C9.95974 32.6683 10.7157 32.3643 11.6197 32.3643C12.2037 32.3643 12.7357 32.5043 13.2157 32.7843C13.6957 33.0643 14.0557 33.4403 14.2957 33.9123L13.1797 34.5603C13.0437 34.2723 12.8357 34.0483 12.5557 33.8883C12.2837 33.7203 11.9677 33.6363 11.6077 33.6363C11.0797 33.6363 10.6357 33.8163 10.2757 34.1763C9.92374 34.5443 9.74774 34.9923 9.74774 35.5203C9.74774 36.0483 9.92374 36.4963 10.2757 36.8643C10.6357 37.2243 11.0797 37.4043 11.6077 37.4043C11.9597 37.4043 12.2757 37.3243 12.5557 37.1643C12.8437 36.9963 13.0597 36.7683 13.2037 36.4803L14.3197 37.1163C14.0637 37.5963 13.6917 37.9763 13.2037 38.2563C12.7237 38.5363 12.1957 38.6763 11.6197 38.6763ZM17.9947 38.6763C17.0907 38.6763 16.3347 38.3723 15.7267 37.7643C15.1267 37.1483 14.8267 36.4003 14.8267 35.5203C14.8267 34.6243 15.1267 33.8763 15.7267 33.2763C16.3347 32.6683 17.0907 32.3643 17.9947 32.3643C18.5787 32.3643 19.1107 32.5043 19.5907 32.7843C20.0707 33.0643 20.4307 33.4403 20.6707 33.9123L19.5547 34.5603C19.4187 34.2723 19.2107 34.0483 18.9307 33.8883C18.6587 33.7203 18.3427 33.6363 17.9827 33.6363C17.4547 33.6363 17.0107 33.8163 16.6507 34.1763C16.2987 34.5443 16.1227 34.9923 16.1227 35.5203C16.1227 36.0483 16.2987 36.4963 16.6507 36.8643C17.0107 37.2243 17.4547 37.4043 17.9827 37.4043C18.3347 37.4043 18.6507 37.3243 18.9307 37.1643C19.2187 36.9963 19.4347 36.7683 19.5787 36.4803L20.6947 37.1163C20.4387 37.5963 20.0667 37.9763 19.5787 38.2563C19.0987 38.5363 18.5707 38.6763 17.9947 38.6763ZM26.6137 37.7643C26.0057 38.3723 25.2577 38.6763 24.3697 38.6763C23.4817 38.6763 22.7337 38.3723 22.1257 37.7643C21.5097 37.1483 21.2017 36.4003 21.2017 35.5203C21.2017 34.6403 21.5097 33.8923 22.1257 33.2763C22.7337 32.6683 23.4817 32.3643 24.3697 32.3643C25.2577 32.3643 26.0057 32.6683 26.6137 33.2763C27.2297 33.8923 27.5377 34.6403 27.5377 35.5203C27.5377 36.4003 27.2297 37.1483 26.6137 37.7643ZM22.4977 35.5203C22.4977 36.0643 22.6777 36.5163 23.0377 36.8763C23.3977 37.2363 23.8417 37.4163 24.3697 37.4163C24.8977 37.4163 25.3417 37.2363 25.7017 36.8763C26.0617 36.5163 26.2417 36.0643 26.2417 35.5203C26.2417 34.9763 26.0617 34.5243 25.7017 34.1643C25.3417 33.8043 24.8977 33.6243 24.3697 33.6243C23.8417 33.6243 23.3977 33.8043 23.0377 34.1643C22.6777 34.5243 22.4977 34.9763 22.4977 35.5203ZM32.7536 35.7363V32.5203H34.0496V38.5203H32.7536V37.7523C32.3536 38.3683 31.7336 38.6763 30.8936 38.6763C30.1976 38.6763 29.6376 38.4563 29.2136 38.0163C28.7976 37.5683 28.5896 36.9643 28.5896 36.2043V32.5203H29.8856V36.0723C29.8856 36.5203 30.0056 36.8643 30.2456 37.1043C30.4856 37.3443 30.8136 37.4643 31.2296 37.4643C31.7016 37.4643 32.0736 37.3203 32.3456 37.0323C32.6176 36.7363 32.7536 36.3043 32.7536 35.7363ZM38.7211 32.3643C39.4171 32.3643 39.9731 32.5883 40.3891 33.0363C40.8131 33.4763 41.0251 34.0763 41.0251 34.8363V38.5203H39.7291V34.9683C39.7291 34.5203 39.6091 34.1763 39.3691 33.9363C39.1291 33.6963 38.8011 33.5763 38.3851 33.5763C37.9131 33.5763 37.5411 33.7243 37.2691 34.0203C36.9971 34.3083 36.8611 34.7363 36.8611 35.3043V38.5203H35.5651V32.5203H36.8611V33.2883C37.2611 32.6723 37.8811 32.3643 38.7211 32.3643ZM45.7686 32.5203V33.7683H44.2806V36.6483C44.2806 36.8963 44.3366 37.0763 44.4486 37.1883C44.5606 37.2923 44.7246 37.3523 44.9406 37.3683C45.1646 37.3763 45.4406 37.3723 45.7686 37.3563V38.5203C44.7766 38.6403 44.0646 38.5563 43.6326 38.2683C43.2006 37.9723 42.9846 37.4323 42.9846 36.6483V33.7683H41.8806V32.5203H42.9846V31.2243L44.2806 30.8403V32.5203H45.7686Z" fill="#181725"/>
</svg>
