<svg width="28" height="44" viewBox="0 0 28 44" fill="none" xmlns="http://www.w3.org/2000/svg">
<path d="M1.54444 34.3323C1.54444 33.5163 1.72844 32.7843 2.09644 32.1363C2.46444 31.4803 2.96444 30.9683 3.59644 30.6003C4.23644 30.2323 4.94444 30.0483 5.72044 30.0483C6.63244 30.0483 7.42844 30.2683 8.10844 30.7083C8.78844 31.1483 9.28444 31.7723 9.59644 32.5803H8.28844C8.05644 32.0763 7.72044 31.6883 7.28044 31.4163C6.84844 31.1443 6.32844 31.0083 5.72044 31.0083C5.13644 31.0083 4.61244 31.1443 4.14844 31.4163C3.68444 31.6883 3.32044 32.0763 3.05644 32.5803C2.79244 33.0763 2.66044 33.6603 2.66044 34.3323C2.66044 34.9963 2.79244 35.5803 3.05644 36.0843C3.32044 36.5803 3.68444 36.9643 4.14844 37.2363C4.61244 37.5083 5.13644 37.6443 5.72044 37.6443C6.32844 37.6443 6.84844 37.5123 7.28044 37.2483C7.72044 36.9763 8.05644 36.5883 8.28844 36.0843H9.59644C9.28444 36.8843 8.78844 37.5043 8.10844 37.9443C7.42844 38.3763 6.63244 38.5923 5.72044 38.5923C4.94444 38.5923 4.23644 38.4123 3.59644 38.0523C2.96444 37.6843 2.46444 37.1763 2.09644 36.5283C1.72844 35.8803 1.54444 35.1483 1.54444 34.3323ZM10.814 35.2083C10.814 34.5363 10.95 33.9483 11.222 33.4443C11.494 32.9323 11.866 32.5363 12.338 32.2563C12.818 31.9763 13.35 31.8363 13.934 31.8363C14.51 31.8363 15.01 31.9603 15.434 32.2083C15.858 32.4563 16.174 32.7683 16.382 33.1443V31.9443H17.486V38.5203H16.382V37.2963C16.166 37.6803 15.842 38.0003 15.41 38.2563C14.986 38.5043 14.49 38.6283 13.922 38.6283C13.338 38.6283 12.81 38.4843 12.338 38.1963C11.866 37.9083 11.494 37.5043 11.222 36.9843C10.95 36.4643 10.814 35.8723 10.814 35.2083ZM16.382 35.2203C16.382 34.7243 16.282 34.2923 16.082 33.9243C15.882 33.5563 15.61 33.2763 15.266 33.0843C14.93 32.8843 14.558 32.7843 14.15 32.7843C13.742 32.7843 13.37 32.8803 13.034 33.0723C12.698 33.2643 12.43 33.5443 12.23 33.9123C12.03 34.2803 11.93 34.7123 11.93 35.2083C11.93 35.7123 12.03 36.1523 12.23 36.5283C12.43 36.8963 12.698 37.1803 13.034 37.3803C13.37 37.5723 13.742 37.6683 14.15 37.6683C14.558 37.6683 14.93 37.5723 15.266 37.3803C15.61 37.1803 15.882 36.8963 16.082 36.5283C16.282 36.1523 16.382 35.7163 16.382 35.2203ZM20.4233 33.0123C20.6153 32.6363 20.8873 32.3443 21.2393 32.1363C21.5993 31.9283 22.0353 31.8243 22.5473 31.8243V32.9523H22.2593C21.0353 32.9523 20.4233 33.6163 20.4233 34.9443V38.5203H19.3313V31.9443H20.4233V33.0123ZM25.1399 32.8443V36.7203C25.1399 37.0403 25.2079 37.2683 25.3439 37.4043C25.4799 37.5323 25.7159 37.5963 26.0519 37.5963H26.8559V38.5203H25.8719C25.2639 38.5203 24.8079 38.3803 24.5039 38.1003C24.1999 37.8203 24.0479 37.3603 24.0479 36.7203V32.8443H23.1959V31.9443H24.0479V30.2883H25.1399V31.9443H26.8559V32.8443H25.1399Z" fill="#181725"/>
<path d="M11.1777 20.3517C10.5292 20.3517 9.90718 20.0941 9.44858 19.6355C8.98999 19.1769 8.73235 18.5549 8.73235 17.9064C8.73235 17.2578 8.98999 16.6358 9.44858 16.1772C9.90718 15.7186 10.5292 15.461 11.1777 15.461C11.8263 15.461 12.4483 15.7186 12.9068 16.1772C13.3654 16.6358 13.6231 17.2578 13.6231 17.9064C13.6231 18.5549 13.3654 19.1769 12.9068 19.6355C12.4483 20.0941 11.8263 20.3517 11.1777 20.3517ZM19.7365 20.3517C19.0879 20.3517 18.466 20.0941 18.0074 19.6355C17.5488 19.1769 17.2911 18.5549 17.2911 17.9064C17.2911 17.2578 17.5488 16.6358 18.0074 16.1772C18.466 15.7186 19.0879 15.461 19.7365 15.461C20.385 15.461 21.007 15.7186 21.4656 16.1772C21.9242 16.6358 22.1819 17.2578 22.1819 17.9064C22.1819 18.5549 21.9242 19.1769 21.4656 19.6355C21.007 20.0941 20.385 20.3517 19.7365 20.3517ZM3.79516 3.14004C3.48993 3.13019 3.2005 3.00202 2.98807 2.78262C2.77564 2.56323 2.65686 2.26981 2.65686 1.96443C2.65686 1.65904 2.77564 1.36562 2.98807 1.14623C3.2005 0.926835 3.48993 0.798663 3.79516 0.788818L5.20247 0.788818C6.30533 0.788818 7.25902 1.55422 7.49867 2.63018L9.03069 9.52855C9.27033 10.6045 10.224 11.3699 11.3269 11.3699H20.5117L22.2748 4.31503H10.8488C10.5465 4.30124 10.2611 4.17142 10.052 3.95257C9.84289 3.73373 9.72621 3.44271 9.72621 3.14004C9.72621 2.83737 9.84289 2.54634 10.052 2.3275C10.2611 2.10866 10.5465 1.97884 10.8488 1.96504H22.2748C22.6322 1.96493 22.985 2.04632 23.3062 2.20301C23.6275 2.35971 23.9088 2.58758 24.1287 2.86931C24.3487 3.15105 24.5015 3.47922 24.5756 3.82889C24.6497 4.17856 24.6431 4.54052 24.5563 4.88725L22.7932 11.9397C22.6661 12.4486 22.3725 12.9003 21.9591 13.2231C21.5457 13.5459 21.0362 13.7212 20.5117 13.7211H11.3269C10.2568 13.7213 9.21864 13.3564 8.3839 12.6869C7.54917 12.0173 6.96776 11.083 6.73571 10.0384L5.20247 3.14004H3.79516Z" fill="#181725"/>
</svg>
