<svg width="42" height="39" viewBox="0 0 42 39" fill="none" xmlns="http://www.w3.org/2000/svg">
<path d="M24.9687 14.0713C25.7566 14.0713 26.5368 13.9161 27.2648 13.6146C27.9927 13.3131 28.6542 12.8711 29.2113 12.3139C29.7685 11.7568 30.2104 11.0954 30.512 10.3674C30.8135 9.63945 30.9687 8.85924 30.9687 8.0713C30.9687 7.28337 30.8135 6.50316 30.512 5.7752C30.2104 5.04725 29.7685 4.38581 29.2113 3.82866C28.6542 3.27151 27.9927 2.82956 27.2648 2.52803C26.5368 2.2265 25.7566 2.0713 24.9687 2.0713C23.3774 2.0713 21.8513 2.70344 20.726 3.82866C19.6008 4.95388 18.9687 6.48001 18.9687 8.0713C18.9687 9.6626 19.6008 11.1887 20.726 12.3139C21.8513 13.4392 23.3774 14.0713 24.9687 14.0713ZM31.2887 12.9773L34.8687 16.5573C34.9641 16.6496 35.0402 16.76 35.0925 16.8821C35.1449 17.0041 35.1724 17.1353 35.1734 17.2681C35.1745 17.4009 35.1491 17.5326 35.0987 17.6554C35.0483 17.7783 34.974 17.8899 34.8801 17.9837C34.7861 18.0775 34.6744 18.1517 34.5515 18.2019C34.4285 18.2521 34.2968 18.2773 34.1641 18.276C34.0313 18.2748 33.9001 18.2471 33.7781 18.1946C33.6562 18.1421 33.5459 18.0659 33.4537 17.9703L29.8737 14.3903C28.2661 15.6382 26.2435 16.2265 24.2174 16.0355C22.1914 15.8445 20.3143 14.8886 18.9682 13.3624C17.6222 11.8361 16.9084 9.85425 16.9721 7.82023C17.0358 5.78621 17.8723 3.85293 19.3113 2.41395C20.7503 0.974973 22.6836 0.138471 24.7176 0.0747298C26.7516 0.0109887 28.7335 0.724801 30.2597 2.07085C31.786 3.41691 32.7419 5.29402 32.9329 7.32006C33.1238 9.3461 32.5355 11.3688 31.2877 12.9763L31.2887 12.9773Z" fill="#181725"/>
<rect x="6.82414" y="0.0708008" width="8.85499" height="2.39923" rx="1.19961" fill="#181725"/>
<rect x="6.82414" y="7.50903" width="6.46414" height="2.39923" rx="1.19961" fill="#181725"/>
<rect x="6.82414" y="14.9475" width="8.85499" height="2.39923" rx="1.19961" fill="#181725"/>
<path d="M2.752 30.9323V33.2003H6.472V34.5203H1.372V26.1203H6.412V27.4403H2.752V29.6243H6.112V30.9323H2.752ZM10.7713 31.4483L13.0153 34.5203H11.5153L10.0273 32.4683L8.52728 34.5203H7.01528L9.27128 31.4363L7.13528 28.5203H8.63528L10.0153 30.4163L11.3953 28.5203H12.9073L10.7713 31.4483ZM17.2817 28.3643C18.0977 28.3643 18.8017 28.6723 19.3937 29.2883C19.9777 29.8963 20.2697 30.6403 20.2697 31.5203C20.2697 32.4083 19.9777 33.1563 19.3937 33.7643C18.8097 34.3723 18.1057 34.6763 17.2817 34.6763C16.3777 34.6763 15.6777 34.3403 15.1817 33.6683V36.9203H13.8857V28.5203H15.1817V29.3843C15.6697 28.7043 16.3697 28.3643 17.2817 28.3643ZM15.7217 32.9003C16.0817 33.2603 16.5337 33.4403 17.0777 33.4403C17.6217 33.4403 18.0737 33.2603 18.4337 32.9003C18.7937 32.5323 18.9737 32.0723 18.9737 31.5203C18.9737 30.9683 18.7937 30.5123 18.4337 30.1523C18.0737 29.7843 17.6217 29.6003 17.0777 29.6003C16.5337 29.6003 16.0817 29.7843 15.7217 30.1523C15.3617 30.5123 15.1817 30.9683 15.1817 31.5203C15.1817 32.0643 15.3617 32.5243 15.7217 32.9003ZM22.7402 34.5203H21.4442V25.7603H22.7402V34.5203ZM29.321 33.7643C28.713 34.3723 27.965 34.6763 27.077 34.6763C26.189 34.6763 25.441 34.3723 24.833 33.7643C24.217 33.1483 23.909 32.4003 23.909 31.5203C23.909 30.6403 24.217 29.8923 24.833 29.2763C25.441 28.6683 26.189 28.3643 27.077 28.3643C27.965 28.3643 28.713 28.6683 29.321 29.2763C29.937 29.8923 30.245 30.6403 30.245 31.5203C30.245 32.4003 29.937 33.1483 29.321 33.7643ZM25.205 31.5203C25.205 32.0643 25.385 32.5163 25.745 32.8763C26.105 33.2363 26.549 33.4163 27.077 33.4163C27.605 33.4163 28.049 33.2363 28.409 32.8763C28.769 32.5163 28.949 32.0643 28.949 31.5203C28.949 30.9763 28.769 30.5243 28.409 30.1643C28.049 29.8043 27.605 29.6243 27.077 29.6243C26.549 29.6243 26.105 29.8043 25.745 30.1643C25.385 30.5243 25.205 30.9763 25.205 31.5203ZM32.7129 28.5203V29.5283C33.0409 28.7843 33.6569 28.4123 34.5609 28.4123V29.8163C34.0729 29.7843 33.6409 29.9043 33.2649 30.1763C32.8969 30.4403 32.7129 30.8803 32.7129 31.4963V34.5203H31.4169V28.5203H32.7129ZM41.0332 32.0723H36.2572C36.3532 32.5203 36.5692 32.8683 36.9052 33.1163C37.2492 33.3643 37.6732 33.4883 38.1772 33.4883C38.8572 33.4883 39.3732 33.2403 39.7252 32.7443L40.7932 33.3683C40.2092 34.2403 39.3332 34.6763 38.1652 34.6763C37.1972 34.6763 36.4092 34.3803 35.8012 33.7883C35.2012 33.1883 34.9012 32.4323 34.9012 31.5203C34.9012 30.6323 35.1972 29.8843 35.7892 29.2763C36.3732 28.6683 37.1332 28.3643 38.0692 28.3643C38.9412 28.3643 39.6612 28.6723 40.2292 29.2883C40.7972 29.9043 41.0812 30.6523 41.0812 31.5323C41.0812 31.6923 41.0652 31.8723 41.0332 32.0723ZM36.2452 31.0163H39.7732C39.6852 30.5443 39.4852 30.1803 39.1732 29.9243C38.8692 29.6683 38.4972 29.5403 38.0572 29.5403C37.5772 29.5403 37.1772 29.6723 36.8572 29.9363C36.5372 30.2003 36.3332 30.5603 36.2452 31.0163Z" fill="#181725"/>
</svg>
