<svg width="54" height="43" viewBox="0 0 54 43" fill="none" xmlns="http://www.w3.org/2000/svg">
<g clip-path="url(#clip0_43_1707)">
<path d="M19.383 11.8434L27.2071 19.6675L35.0312 11.8434C35.7229 11.1517 36.1115 10.2135 36.1115 9.23519C36.1115 8.25691 35.7229 7.3187 35.0312 6.62696C34.6886 6.28444 34.282 6.01274 33.8345 5.82737C33.387 5.642 32.9073 5.54659 32.4229 5.54659C31.4446 5.54659 30.5064 5.93521 29.8147 6.62696L27.2071 9.23458L24.5994 6.62818C23.9059 5.94572 22.9708 5.56494 21.9979 5.56878C21.0249 5.57263 20.0928 5.96079 19.4047 6.64872C18.7166 7.33665 18.3283 8.26861 18.3242 9.2416C18.3201 10.2146 18.7007 11.1498 19.383 11.8434ZM26.3379 4.88731L27.2071 5.75652L28.0763 4.88731C28.6462 4.31239 29.324 3.8557 30.0709 3.54345C30.8178 3.23121 31.619 3.06956 32.4285 3.06779C33.238 3.06601 34.0399 3.22415 34.7882 3.53312C35.5364 3.8421 36.2162 4.29581 36.7887 4.86823C37.3611 5.44065 37.8148 6.12049 38.1238 6.86873C38.4327 7.61697 38.5909 8.41887 38.5891 9.22839C38.5873 10.0379 38.4257 10.8391 38.1134 11.586C37.8012 12.3329 37.3445 13.0107 36.7696 13.5806L28.0775 22.2739C27.9633 22.3882 27.8277 22.4789 27.6785 22.5408C27.5292 22.6027 27.3692 22.6345 27.2077 22.6345C27.0461 22.6345 26.8861 22.6027 26.7369 22.5408C26.5876 22.4789 26.452 22.3882 26.3379 22.2739L17.6445 13.5818C17.0618 13.0138 16.5977 12.3356 16.2791 11.5868C15.9604 10.838 15.7937 10.0333 15.7885 9.2195C15.7833 8.4057 15.9397 7.59897 16.2487 6.84611C16.5577 6.09324 17.0131 5.40922 17.5885 4.83373C18.1639 4.25823 18.8479 3.80273 19.6007 3.49362C20.3535 3.18452 21.1602 3.02798 21.974 3.03308C22.7878 3.03818 23.5925 3.20482 24.3414 3.52333C25.0903 3.84184 25.7685 4.30588 26.3366 4.88854L26.3379 4.88731Z" fill="#181725"/>
</g>
<path d="M6.93311 30.1203V31.4403H3.39311V33.7923H6.81311V35.1123H3.39311V38.5203H2.01311V30.1203H6.93311ZM12.892 33.3723V32.5203H14.188V38.5203H12.892V37.6563C12.404 38.3363 11.704 38.6763 10.792 38.6763C9.96805 38.6763 9.26405 38.3723 8.68005 37.7643C8.09605 37.1563 7.80405 36.4083 7.80405 35.5203C7.80405 34.6323 8.09605 33.8843 8.68005 33.2763C9.26405 32.6683 9.96805 32.3643 10.792 32.3643C11.704 32.3643 12.404 32.7003 12.892 33.3723ZM9.64005 36.9003C10 37.2603 10.452 37.4403 10.996 37.4403C11.54 37.4403 11.992 37.2603 12.352 36.9003C12.712 36.5323 12.892 36.0723 12.892 35.5203C12.892 34.9683 12.712 34.5123 12.352 34.1523C11.992 33.7843 11.54 33.6003 10.996 33.6003C10.452 33.6003 10 33.7843 9.64005 34.1523C9.28005 34.5123 9.10005 34.9683 9.10005 35.5203C9.10005 36.0643 9.28005 36.5243 9.64005 36.9003ZM18.0986 37.0803L19.7666 32.5203H21.1826L18.8426 38.5203H17.3426L15.0026 32.5203H16.4186L18.0986 37.0803ZM26.845 37.7643C26.237 38.3723 25.489 38.6763 24.601 38.6763C23.713 38.6763 22.965 38.3723 22.357 37.7643C21.741 37.1483 21.433 36.4003 21.433 35.5203C21.433 34.6403 21.741 33.8923 22.357 33.2763C22.965 32.6683 23.713 32.3643 24.601 32.3643C25.489 32.3643 26.237 32.6683 26.845 33.2763C27.461 33.8923 27.769 34.6403 27.769 35.5203C27.769 36.4003 27.461 37.1483 26.845 37.7643ZM22.729 35.5203C22.729 36.0643 22.909 36.5163 23.269 36.8763C23.629 37.2363 24.073 37.4163 24.601 37.4163C25.129 37.4163 25.573 37.2363 25.933 36.8763C26.293 36.5163 26.473 36.0643 26.473 35.5203C26.473 34.9763 26.293 34.5243 25.933 34.1643C25.573 33.8043 25.129 33.6243 24.601 33.6243C24.073 33.6243 23.629 33.8043 23.269 34.1643C22.909 34.5243 22.729 34.9763 22.729 35.5203ZM32.9848 35.7363V32.5203H34.2808V38.5203H32.9848V37.7523C32.5848 38.3683 31.9648 38.6763 31.1248 38.6763C30.4288 38.6763 29.8688 38.4563 29.4448 38.0163C29.0288 37.5683 28.8208 36.9643 28.8208 36.2043V32.5203H30.1168V36.0723C30.1168 36.5203 30.2368 36.8643 30.4768 37.1043C30.7168 37.3443 31.0448 37.4643 31.4608 37.4643C31.9328 37.4643 32.3048 37.3203 32.5768 37.0323C32.8488 36.7363 32.9848 36.3043 32.9848 35.7363ZM37.0923 32.5203V33.5283C37.4203 32.7843 38.0363 32.4123 38.9403 32.4123V33.8163C38.4523 33.7843 38.0203 33.9043 37.6443 34.1763C37.2763 34.4403 37.0923 34.8803 37.0923 35.4963V38.5203H35.7963V32.5203H37.0923ZM41.1219 31.3803C40.9619 31.5403 40.7699 31.6203 40.5459 31.6203C40.3219 31.6203 40.1259 31.5403 39.9579 31.3803C39.7979 31.2123 39.7179 31.0163 39.7179 30.7923C39.7179 30.5683 39.7979 30.3763 39.9579 30.2163C40.1179 30.0483 40.3139 29.9643 40.5459 29.9643C40.7779 29.9643 40.9739 30.0483 41.1339 30.2163C41.2939 30.3763 41.3739 30.5683 41.3739 30.7923C41.3739 31.0163 41.2899 31.2123 41.1219 31.3803ZM41.1939 38.5203H39.8979V32.5203H41.1939V38.5203ZM46.0466 32.5203V33.7683H44.5586V36.6483C44.5586 36.8963 44.6146 37.0763 44.7266 37.1883C44.8386 37.2923 45.0026 37.3523 45.2186 37.3683C45.4426 37.3763 45.7186 37.3723 46.0466 37.3563V38.5203C45.0546 38.6403 44.3426 38.5563 43.9106 38.2683C43.4786 37.9723 43.2626 37.4323 43.2626 36.6483V33.7683H42.1586V32.5203H43.2626V31.2243L44.5586 30.8403V32.5203H46.0466ZM52.772 36.0723H47.996C48.092 36.5203 48.308 36.8683 48.644 37.1163C48.988 37.3643 49.412 37.4883 49.916 37.4883C50.596 37.4883 51.112 37.2403 51.464 36.7443L52.532 37.3683C51.948 38.2403 51.072 38.6763 49.904 38.6763C48.936 38.6763 48.148 38.3803 47.54 37.7883C46.94 37.1883 46.64 36.4323 46.64 35.5203C46.64 34.6323 46.936 33.8843 47.528 33.2763C48.112 32.6683 48.872 32.3643 49.808 32.3643C50.68 32.3643 51.4 32.6723 51.968 33.2883C52.536 33.9043 52.82 34.6523 52.82 35.5323C52.82 35.6923 52.804 35.8723 52.772 36.0723ZM47.984 35.0163H51.512C51.424 34.5443 51.224 34.1803 50.912 33.9243C50.608 33.6683 50.236 33.5403 49.796 33.5403C49.316 33.5403 48.916 33.6723 48.596 33.9363C48.276 34.2003 48.072 34.5603 47.984 35.0163Z" fill="#181725"/>
<defs>
<clipPath id="clip0_43_1707">
<rect width="24" height="24" fill="white" transform="translate(14.6887 0.83374)"/>
</clipPath>
</defs>
</svg>
