<svg width="30" height="43" viewBox="0 0 30 43" fill="none" xmlns="http://www.w3.org/2000/svg">
<path d="M12.4038 9.58781C12.9338 10.0628 13.6358 10.3518 14.4038 10.3518H16.4038C17.1419 10.3528 17.8543 10.0807 18.4038 9.58781H12.4038ZM12.4038 9.58781C11.8543 10.0807 11.1419 10.3528 10.4038 10.3518L12.4038 9.58781ZM11.4538 4.35181V4.30181H11.4038H8.40381C8.12533 4.30181 7.85826 4.41243 7.66135 4.60934C7.46444 4.80626 7.35381 5.07333 7.35381 5.35181V7.35181C7.35381 7.63028 7.46444 7.89736 7.66135 8.09427C7.85826 8.29118 8.12533 8.40181 8.40381 8.40181H10.4038C10.6823 8.40181 10.9494 8.29118 11.1463 8.09427C11.3432 7.89736 11.4538 7.63028 11.4538 7.35181V4.35181ZM8.41381 10.3018H8.36381V10.3518V20.3168V20.3668H8.41381H10.4038H10.4538V20.3168V15.3518C10.4538 14.8346 10.6593 14.3386 11.025 13.9729C11.3906 13.6073 11.8866 13.4018 12.4038 13.4018H14.4038C14.921 13.4018 15.417 13.6073 15.7827 13.9729C16.1484 14.3386 16.3538 14.8346 16.3538 15.3518V20.3168V20.3668H16.4038H22.4168H22.4668V20.3168V10.3518V10.3018H22.4168H20.4038C19.6486 10.3018 18.9583 10.0177 18.4372 9.55057L18.4038 9.52065L18.3704 9.55059C17.8302 10.0352 17.1297 10.3028 16.4039 10.3018H16.4038H14.4038C13.6486 10.3018 12.9583 10.0177 12.4372 9.55057L12.4038 9.52065L12.3704 9.55059C11.8302 10.0352 11.1297 10.3028 10.4039 10.3018H10.4038H8.41381ZM6.41198 9.52893C6.11554 9.25816 5.87751 8.92947 5.71271 8.56299C5.54148 8.18222 5.45323 7.76938 5.45381 7.35188V7.35181V5.35181C5.45381 4.56942 5.76461 3.81907 6.31785 3.26584C6.87108 2.71261 7.62142 2.40181 8.40381 2.40181H22.4038C23.1862 2.40181 23.9365 2.71261 24.4898 3.26584C25.043 3.81907 25.3538 4.56942 25.3538 5.35181V7.35181C25.3538 8.21914 24.9802 8.99984 24.3833 9.53972L24.3668 9.55461V9.57681V20.3168C24.3668 20.834 24.1614 21.33 23.7957 21.6957C23.43 22.0614 22.934 22.2668 22.4168 22.2668H14.7768V22.2659L14.7675 22.2677C14.6476 22.2904 14.5258 22.3018 14.4038 22.3018H12.4038C12.2818 22.3018 12.16 22.2904 12.0401 22.2677L12.0403 22.2668H12.0308H8.41481C7.89764 22.2668 7.40165 22.0614 7.03595 21.6957C6.67026 21.33 6.46481 20.834 6.46481 20.3168V9.59681V9.47611L6.41198 9.52893ZM14.4538 15.3518V15.3018H14.4038H12.4038H12.3538V15.3518V20.3168V20.3668H12.4038H14.4038V20.3178H14.4538V20.3168V20.2668V15.3518ZM17.4538 4.35181V4.30181H17.4038H13.4038H13.3538V4.35181V7.35181C13.3538 7.63028 13.4644 7.89736 13.6613 8.09427C13.8583 8.29118 14.1253 8.40181 14.4038 8.40181H16.4038C16.6823 8.40181 16.9494 8.29118 17.1463 8.09427C17.3432 7.89736 17.4538 7.63028 17.4538 7.35181V4.35181ZM19.4038 4.30181H19.3538V4.35181V7.35181C19.3538 7.63028 19.4644 7.89736 19.6613 8.09427C19.8583 8.29118 20.1253 8.40181 20.4038 8.40181H22.4038C22.6823 8.40181 22.9494 8.29118 23.1463 8.09427C23.3432 7.89736 23.4538 7.63028 23.4538 7.35181V5.35181C23.4538 5.07333 23.3432 4.80626 23.1463 4.60934C22.9494 4.41243 22.6823 4.30181 22.4038 4.30181H19.4038ZM19.4038 13.4018H20.4038C20.6558 13.4018 20.8974 13.5019 21.0756 13.6801C21.2537 13.8582 21.3538 14.0999 21.3538 14.3518V17.3518C21.3538 17.6038 21.2537 17.8454 21.0756 18.0236C20.8974 18.2017 20.6558 18.3018 20.4038 18.3018H19.4038C19.1519 18.3018 18.9102 18.2017 18.7321 18.0236C18.5539 17.8454 18.4538 17.6038 18.4538 17.3518V14.3518C18.4538 14.0999 18.5539 13.8582 18.7321 13.6801C18.9102 13.5019 19.1519 13.4018 19.4038 13.4018Z" fill="#181725" stroke="white" stroke-width="0.1"/>
<path d="M4.76051 38.6763C3.95251 38.6763 3.26451 38.4963 2.69651 38.1363C2.13651 37.7683 1.74451 37.2603 1.52051 36.6123L2.70851 35.9163C3.04451 36.8603 3.74051 37.3323 4.79651 37.3323C5.30851 37.3323 5.69651 37.2323 5.96051 37.0323C6.22451 36.8323 6.35651 36.5643 6.35651 36.2283C6.35651 35.8923 6.21651 35.6323 5.93651 35.4483C5.65651 35.2643 5.16051 35.0643 4.44851 34.8483C3.72051 34.6323 3.13251 34.3763 2.68451 34.0803C2.14051 33.6963 1.86851 33.1323 1.86851 32.3883C1.86851 31.6443 2.13251 31.0563 2.66051 30.6243C3.18051 30.1843 3.81651 29.9643 4.56851 29.9643C5.23251 29.9643 5.81651 30.1283 6.32051 30.4563C6.83251 30.7763 7.22451 31.2283 7.49651 31.8123L6.33251 32.4843C5.98051 31.7003 5.39251 31.3083 4.56851 31.3083C4.16851 31.3083 3.84851 31.4043 3.60851 31.5963C3.36851 31.7803 3.24851 32.0323 3.24851 32.3523C3.24851 32.6643 3.36851 32.9123 3.60851 33.0963C3.84851 33.2723 4.29251 33.4603 4.94051 33.6603C5.34051 33.7963 5.57251 33.8763 5.63651 33.9003C5.74051 33.9323 5.94851 34.0123 6.26051 34.1403C6.51651 34.2443 6.72051 34.3563 6.87251 34.4763C7.49651 34.9643 7.78451 35.5403 7.73651 36.2043C7.73651 36.9643 7.46051 37.5683 6.90851 38.0163C6.37251 38.4563 5.65651 38.6763 4.76051 38.6763ZM12.0092 32.3643C12.7052 32.3643 13.2612 32.5883 13.6772 33.0363C14.1012 33.4763 14.3132 34.0763 14.3132 34.8363V38.5203H13.0172V34.9683C13.0172 34.5203 12.8972 34.1763 12.6572 33.9363C12.4172 33.6963 12.0892 33.5763 11.6732 33.5763C11.2012 33.5763 10.8292 33.7243 10.5572 34.0203C10.2852 34.3083 10.1492 34.7363 10.1492 35.3043V38.5203H8.85317V30.1203H10.1492V33.2883C10.5492 32.6723 11.1692 32.3643 12.0092 32.3643ZM20.7846 37.7643C20.1766 38.3723 19.4286 38.6763 18.5406 38.6763C17.6526 38.6763 16.9046 38.3723 16.2966 37.7643C15.6806 37.1483 15.3726 36.4003 15.3726 35.5203C15.3726 34.6403 15.6806 33.8923 16.2966 33.2763C16.9046 32.6683 17.6526 32.3643 18.5406 32.3643C19.4286 32.3643 20.1766 32.6683 20.7846 33.2763C21.4006 33.8923 21.7086 34.6403 21.7086 35.5203C21.7086 36.4003 21.4006 37.1483 20.7846 37.7643ZM16.6686 35.5203C16.6686 36.0643 16.8486 36.5163 17.2086 36.8763C17.5686 37.2363 18.0126 37.4163 18.5406 37.4163C19.0686 37.4163 19.5126 37.2363 19.8726 36.8763C20.2326 36.5163 20.4126 36.0643 20.4126 35.5203C20.4126 34.9763 20.2326 34.5243 19.8726 34.1643C19.5126 33.8043 19.0686 33.6243 18.5406 33.6243C18.0126 33.6243 17.5686 33.8043 17.2086 34.1643C16.8486 34.5243 16.6686 34.9763 16.6686 35.5203ZM26.2765 32.3643C27.0925 32.3643 27.7965 32.6723 28.3885 33.2883C28.9725 33.8963 29.2645 34.6403 29.2645 35.5203C29.2645 36.4083 28.9725 37.1563 28.3885 37.7643C27.8045 38.3723 27.1005 38.6763 26.2765 38.6763C25.3725 38.6763 24.6725 38.3403 24.1765 37.6683V40.9203H22.8805V32.5203H24.1765V33.3843C24.6645 32.7043 25.3645 32.3643 26.2765 32.3643ZM24.7165 36.9003C25.0765 37.2603 25.5285 37.4403 26.0725 37.4403C26.6165 37.4403 27.0685 37.2603 27.4285 36.9003C27.7885 36.5323 27.9685 36.0723 27.9685 35.5203C27.9685 34.9683 27.7885 34.5123 27.4285 34.1523C27.0685 33.7843 26.6165 33.6003 26.0725 33.6003C25.5285 33.6003 25.0765 33.7843 24.7165 34.1523C24.3565 34.5123 24.1765 34.9683 24.1765 35.5203C24.1765 36.0643 24.3565 36.5243 24.7165 36.9003Z" fill="#181725"/>
</svg>
